<?xml version="1.0" encoding="UTF-8" standalone="no"?><!DOCTYPE svg PUBLIC "-//W3C//DTD SVG 1.1//EN" "http://www.w3.org/Graphics/SVG/1.1/DTD/svg11.dtd"><svg width="100%" height="100%" viewBox="0 0 1016 244" version="1.1" xmlns="http://www.w3.org/2000/svg" xmlns:xlink="http://www.w3.org/1999/xlink" xml:space="preserve" xmlns:serif="http://www.serif.com/" style="fill-rule:evenodd;clip-rule:evenodd;stroke-linejoin:round;stroke-miterlimit:2;"><rect id="Página-2" serif:id="Página 2" x="-515.893" y="-364.057" width="3375.763" height="2572.55" style="fill:none;"/><g id="Layer-1" serif:id="Layer 1"><g id="LOGO-VERDE-1" serif:id="LOGO VERDE 1"></g><g id="LOGO-VERDE-2" serif:id="LOGO VERDE 2"></g><g id="LOGO-NARANJA-1" serif:id="LOGO NARANJA 1"></g><g id="LOGO-NARANJA-2" serif:id="LOGO NARANJA 2"></g><g><path d="M894.89,8.333c-64.608,0 -111.5,47.796 -111.5,113.65c0,65.854 46.892,113.65 111.5,113.65c64.788,0 111.808,-47.796 111.808,-113.65c0,-65.854 -47.021,-113.65 -111.808,-113.65m0,235.633c-69.433,0 -119.833,-51.304 -119.833,-121.983c0,-70.679 50.4,-121.983 119.833,-121.983c69.617,0 120.142,51.304 120.142,121.983c0,70.679 -50.525,121.983 -120.142,121.983" style="fill-rule:nonzero;"/><path d="M869.588,131.581c0.4,-0.258 0.317,-0.875 -0.142,-1.004c-4.242,-1.192 -8.458,-1.429 -12.854,-0.921c-11.288,1.317 -21.617,6.729 -29.267,15.104l-2.846,3.346c-2.192,2.575 -5.742,3.217 -8.996,2.071c-7.004,-2.463 -13.617,-4.271 -19.304,1.025c0.95,-2.383 2.721,-3.858 4.521,-5.221c0.033,-0.029 0.071,-0.05 0.108,-0.067c3.225,-1.625 6.713,-2.004 10.317,-1.737c2.554,0.188 4.979,-0.162 7.283,-1.113c-3.021,-1.429 -6.133,-1.783 -9.296,-1.15c-0.542,0.108 -0.887,-0.575 -0.479,-0.95c2.396,-2.204 5.308,-3.383 8.421,-3.925c3.571,-0.525 6.996,-0.292 10.429,0.683c0.175,0.05 0.367,0.008 0.504,-0.121c12.988,-12.042 31.779,-15.654 48.783,-11.454c0.025,0.004 0.054,0.013 0.079,0.013c9.342,1.004 18.233,-3.663 22.862,-11.788c2.288,-4.258 3.167,-8.875 2.413,-13.575c-0.062,-0.4 0.308,-0.737 0.7,-0.621c2.138,0.638 3.942,1.375 5.879,2.333c9.683,4.8 19.858,12.346 26.646,21.129c0.375,0.487 1.154,0.079 0.958,-0.504c-2.617,-7.8 -8.825,-15.208 -14.896,-20.292c-12.521,-10.479 -28.963,-14.729 -45.358,-14.567c-1.671,0.017 -3.092,-1.221 -3.233,-2.887c-0.15,-1.754 -0.038,-3.692 0.467,-4.825c0.071,-0.163 0.229,-0.263 0.404,-0.296c3.746,-0.688 7.242,-1.875 10.75,-3.329c0.083,-0.038 0.158,-0.092 0.217,-0.158l2.75,-3.246c2.296,-2.708 5.333,-4.425 8.271,-6.383c5.067,-3.379 10.379,-5.817 16.179,-7.675c0.054,-0.017 0.104,-0.042 0.15,-0.071c2.387,-1.571 3.871,-4.475 4.642,-7.258c1.921,-6.908 0.346,-14.292 -3.917,-19.958c-2.083,-2.767 -4.717,-4.358 -8.154,-5.517c5.954,-0.437 11.538,2.463 15.25,7.113c7.458,9.637 7.112,23.562 0.962,34.046c-0.142,0.242 -0.079,0.546 0.154,0.708c19.575,13.779 33.696,35.062 39.95,58.079c4.446,16.725 4.846,34.004 -0.675,50.433c-0.158,0.463 -0.804,0.508 -1.029,0.075l-3.592,-6.937c-0.054,-0.104 -0.075,-0.221 -0.054,-0.338c0.737,-4.167 0.95,-8.188 0.683,-12.312c-0.246,-2.483 -0.6,-4.863 -1.367,-7.262c-0.129,-0.412 -0.671,-0.525 -0.95,-0.196c-2.621,3.071 -5.812,6.658 -9.321,8.213c-0.225,0.1 -0.487,0.029 -0.65,-0.158c-1.804,-2.113 -3.671,-3.879 -6.033,-5.5c-8.712,-5.958 -18.746,-10.042 -29.421,-11.188c6.863,2.3 13.246,5.25 19.342,9.267c16.95,11.171 31.504,28.688 37.438,48.287c0.112,0.358 -0.167,0.725 -0.542,0.721l-4.071,-0.046c-0.188,0 -0.358,-0.1 -0.458,-0.262c-10,-16.542 -26.6,-28.962 -44.792,-34.988c-14.858,-4.921 -32.379,-5.987 -46.304,1.571c-11.354,6.163 -16.171,15.05 -17.738,27.638c0,0.021 -0.004,0.046 -0.004,0.067l-0.092,4.517c-0.004,0.304 -0.25,0.542 -0.554,0.542l-6.438,-0.017c-0.275,0 -0.513,-0.204 -0.554,-0.475c-2.758,-17.279 2.008,-35.988 10.975,-50.738c3.683,-6.062 8.692,-11.912 14.892,-15.95" style="fill-rule:nonzero;"/></g><path d="M873.56,198.956l-5.029,-0.004c-0.663,0 -1.233,-0.508 -1.288,-1.171c-0.808,-10.475 3.4,-20.85 9.754,-29.275c0.146,-0.192 0.337,-0.346 0.567,-0.438c5.083,-2.058 11.179,-2.963 16.725,-2.217c1.113,0.15 1.475,1.6 0.575,2.271c-9.492,7.121 -18.042,17.583 -20.062,29.763c-0.1,0.617 -0.617,1.071 -1.242,1.071" style="fill-rule:nonzero;"/><path d="M882.391,70.677c-0.929,2.183 -5.913,3.625 -8.533,3.446c-4.771,-3.508 -7.596,-11.296 -8.229,-17.221c-0.104,-0.983 -0.058,-2.075 0.342,-3.075c1.354,6.938 5.629,12.825 11.904,15.971c1.462,0.733 2.938,0.796 4.517,0.879" style="fill-rule:nonzero;"/><g><path d="M69.629,162.484l0,-12.871c-4.429,2.321 -10.763,4.008 -17.725,5.696c-13.292,2.954 -18.779,6.333 -18.779,14.558c0,8.654 6.333,12.029 14.771,12.029c12.871,0 21.733,-7.808 21.733,-19.412m-69.629,8.442c0,-23.846 18.988,-31.017 41.354,-33.971c20.258,-2.533 27.429,-4.642 27.429,-12.029c0,-6.962 -4.429,-11.604 -14.767,-11.604c-10.975,0 -16.458,4.854 -17.512,13.925l-31.65,0c0.842,-20.046 16.246,-37.133 48.95,-37.133c16.246,0 27.221,2.95 35.025,8.858c9.283,6.754 13.717,17.304 13.717,30.808l0,54.438c0,8.65 0.842,13.504 3.796,15.404l0,1.475l-33.337,0c-1.688,-2.321 -2.742,-6.542 -3.588,-12.025l-0.421,0c-6.329,9.071 -15.825,14.767 -32.071,14.767c-21.521,0 -36.925,-11.604 -36.925,-32.913" style="fill-rule:nonzero;"/><path d="M119.208,93.065l33.125,0l0,14.771l0.633,0c8.021,-11.604 18.358,-17.937 33.338,-17.937c23.633,0 37.558,16.883 37.558,40.938l0,70.262l-34.392,0l0,-63.3c0,-11.396 -5.696,-19.204 -16.879,-19.204c-11.396,0 -18.992,9.496 -18.992,22.792l0,59.712l-34.392,0l0,-108.033Z" style="fill-rule:nonzero;"/><path d="M315.222,147.292c0,-19.621 -8.017,-32.917 -23,-32.917c-14.979,0 -22.788,13.296 -22.788,32.917c0,19.625 7.808,32.704 22.788,32.704c14.983,0 23,-13.079 23,-32.704m-80.6,0c0,-32.492 23.208,-57.179 57.812,-57.179c34.817,0 57.604,24.687 57.604,57.179c0,32.496 -22.788,57.183 -57.604,57.183c-34.604,0 -57.812,-24.687 -57.812,-57.183" style="fill-rule:nonzero;"/><path d="M367.97,172.612l0,-58.025l-14.35,0l0,-21.521l14.35,0l0,-34.183l33.55,0l0,34.183l19.621,0l0,21.521l-19.621,0l0,50.642c0,8.438 4.642,10.55 12.025,10.55c2.954,0 6.329,-0.213 7.596,-0.213l0,25.108c-2.954,0.846 -9.496,1.688 -18.779,1.688c-20.046,0 -34.392,-6.542 -34.392,-29.75" style="fill-rule:nonzero;"/><path d="M433.589,50.233l34.392,0l0,56.125l0.633,0c7.808,-10.337 17.092,-16.458 32.071,-16.458c23.633,0 37.558,16.879 37.558,40.937l0,70.263l-34.392,0l0,-63.3c0,-11.396 -5.696,-19.204 -16.879,-19.204c-11.396,0 -18.992,9.496 -18.992,22.792l0,59.713l-34.392,0l0,-150.867Z" style="fill-rule:nonzero;"/><path d="M625.594,135.476c-1.267,-12.871 -9.283,-21.1 -20.467,-21.1c-13.083,0 -19.833,8.229 -22.154,21.1l42.621,0Zm-76.592,11.396c0,-32.283 22.575,-56.971 55.492,-56.971c15.404,0 27.642,5.062 36.925,13.504c12.871,11.817 19.2,30.596 18.992,52.537l-77.65,0c2.108,14.558 10.129,23.633 24.267,23.633c9.071,0 14.979,-4.008 17.933,-10.762l33.55,0c-2.321,9.708 -8.65,18.992 -18.146,25.533c-9.075,6.329 -20.046,9.917 -33.763,9.917c-35.658,0 -57.6,-24.688 -57.6,-57.392" style="fill-rule:nonzero;"/><path d="M672.01,93.065l32.917,0l0,16.879l0.633,0c7.596,-12.871 16.458,-18.567 29.538,-18.567c3.167,0 5.275,0.213 6.754,0.842l0,29.542l-0.846,0c-21.1,-2.954 -34.604,7.383 -34.604,30.804l0,48.533l-34.392,0l0,-108.033Z" style="fill-rule:nonzero;"/></g><g><path d="M192.742,274.905c-2.613,0 -4.754,-0.488 -6.417,-1.458c-1.667,-0.971 -3.046,-2.208 -4.125,-3.708l2.537,-2.083c1.142,1.417 2.342,2.475 3.604,3.167c1.267,0.696 2.771,1.042 4.521,1.042c2.112,0 3.725,-0.483 4.833,-1.45c1.112,-0.967 1.671,-2.321 1.671,-4.058c0,-1.408 -0.404,-2.504 -1.208,-3.296c-0.808,-0.783 -2.208,-1.342 -4.212,-1.675l-3.246,-0.542c-1.417,-0.25 -2.604,-0.625 -3.567,-1.129c-0.954,-0.5 -1.729,-1.1 -2.308,-1.812c-0.583,-0.708 -1.004,-1.483 -1.25,-2.337c-0.254,-0.846 -0.375,-1.733 -0.375,-2.646c0,-2.671 0.875,-4.688 2.625,-6.05c1.75,-1.367 4.108,-2.046 7.079,-2.046c2.338,0 4.3,0.396 5.896,1.179c1.6,0.792 2.883,1.9 3.858,3.321l-2.463,2.125c-0.804,-1.058 -1.775,-1.917 -2.912,-2.583c-1.142,-0.667 -2.612,-1 -4.421,-1c-1.971,0 -3.488,0.412 -4.542,1.242c-1.05,0.829 -1.579,2.071 -1.579,3.725c0,1.3 0.392,2.358 1.188,3.171c0.787,0.812 2.213,1.4 4.267,1.758l3.125,0.542c1.421,0.25 2.612,0.625 3.583,1.125c0.975,0.5 1.758,1.1 2.358,1.796c0.596,0.696 1.017,1.471 1.271,2.333c0.246,0.862 0.371,1.767 0.371,2.717c0,2.696 -0.879,4.808 -2.642,6.338c-1.767,1.529 -4.275,2.296 -7.521,2.296" style="fill-rule:nonzero;"/><path d="M408.823,270.53l-0.212,0c-0.246,0.554 -0.542,1.096 -0.875,1.625c-0.333,0.529 -0.754,0.992 -1.267,1.396c-0.512,0.4 -1.133,0.725 -1.858,0.979c-0.721,0.25 -1.583,0.375 -2.583,0.375c-3.167,0 -5.517,-1.279 -7.058,-3.833c-1.542,-2.554 -2.317,-6.221 -2.317,-11.004c0,-4.996 0.85,-8.787 2.542,-11.371c1.696,-2.583 4.308,-3.875 7.833,-3.875c1.367,0 2.546,0.179 3.546,0.542c0.996,0.363 1.85,0.846 2.558,1.458c0.708,0.608 1.3,1.296 1.775,2.062c0.471,0.762 0.858,1.533 1.163,2.308l-2.996,1.375c-0.25,-0.638 -0.538,-1.238 -0.858,-1.808c-0.317,-0.571 -0.704,-1.071 -1.167,-1.5c-0.454,-0.433 -1.004,-0.771 -1.642,-1.025c-0.642,-0.246 -1.392,-0.371 -2.25,-0.371c-2.337,0 -4.05,0.875 -5.15,2.621c-1.092,1.75 -1.642,4.088 -1.642,7.004l0,4.496c0,1.475 0.108,2.817 0.333,4.025c0.221,1.208 0.587,2.254 1.1,3.146c0.517,0.887 1.183,1.575 2.004,2.062c0.817,0.483 1.821,0.729 3.021,0.729c1.887,0 3.358,-0.571 4.413,-1.708c1.058,-1.142 1.587,-2.613 1.587,-4.417l0,-3.004l-6.129,0l0,-2.792l9.375,0l0,14.379l-3.246,0l0,-3.875Z" style="fill-rule:nonzero;"/><path d="M493.78,274.905c-3.558,0 -6.204,-1.296 -7.938,-3.875c-1.738,-2.583 -2.604,-6.304 -2.604,-11.167c0,-4.858 0.867,-8.583 2.604,-11.167c1.733,-2.583 4.379,-3.875 7.938,-3.875c1.329,0 2.483,0.179 3.454,0.542c0.971,0.363 1.808,0.846 2.504,1.458c0.692,0.608 1.275,1.296 1.75,2.062c0.471,0.762 0.888,1.533 1.246,2.312l-2.996,1.375c-0.254,-0.642 -0.542,-1.242 -0.875,-1.812c-0.333,-0.571 -0.729,-1.071 -1.188,-1.5c-0.462,-0.433 -1.004,-0.771 -1.625,-1.021c-0.625,-0.25 -1.383,-0.375 -2.271,-0.375c-2.308,0 -4.025,0.875 -5.146,2.625c-1.129,1.75 -1.692,4.083 -1.692,7l0,4.75c0,2.917 0.562,5.25 1.692,7c1.121,1.75 2.837,2.625 5.146,2.625c0.887,0 1.646,-0.125 2.271,-0.375c0.621,-0.25 1.163,-0.592 1.625,-1.021c0.458,-0.429 0.854,-0.929 1.188,-1.5c0.333,-0.571 0.621,-1.175 0.875,-1.812l2.996,1.375c-0.358,0.804 -0.775,1.583 -1.246,2.333c-0.475,0.75 -1.058,1.429 -1.75,2.042c-0.696,0.613 -1.533,1.096 -2.504,1.458c-0.971,0.358 -2.125,0.542 -3.454,0.542" style="fill-rule:nonzero;"/></g></g></svg>