<?xml version="1.0" encoding="UTF-8"?> <svg xmlns="http://www.w3.org/2000/svg" width="93" height="32" viewBox="0 0 93 32" fill="none"><path d="M42.2923 15.3497C42.2923 20.1826 39.1773 23.2021 34.1748 23.2021H29.6919V7.45755H34.1748C39.1773 7.44694 42.2923 10.4744 42.2923 15.3497ZM39.7924 15.3497C39.7924 12.0094 37.6238 9.91772 34.1669 9.91772H32.1547V20.7499H34.196C37.6318 20.7393 39.7924 18.6609 39.7924 15.3497Z" fill="white"></path><path d="M46.0144 9.88853V13.9234H50.6829V16.3836H46.0144V20.7393H54.2327L52.9072 23.2021H43.541V7.45752H52.9178V9.88853H46.0144Z" fill="white"></path><path d="M61.9338 9.90709H54.7946V7.45752H65.8706L58.742 20.7393H65.8706V23.2021H54.7946L61.9338 9.90709Z" fill="white"></path><path d="M73.0683 15.1933L78.6487 7.45752H75.7776L70.3642 14.9971V7.45752H67.9041V23.2021H70.3642V18.9392L71.6102 17.2134L76.1806 23.1915L77.4186 20.8692L73.0683 15.1933Z" fill="white"></path><path d="M85.5494 7.42285H85.1385L77.8667 23.2019H80.5443L81.6047 20.8159L82.3549 19.1537H88.3198L89.07 20.8159L90.1463 23.2019H92.8212L85.5494 7.42285ZM85.3506 12.5367L87.3654 17.0276H83.3358L85.3506 12.5367Z" fill="white"></path><path d="M50.7279 31.998C50.3923 32.0065 50.0586 31.9448 49.7482 31.817C49.4378 31.6892 49.1575 31.498 48.9252 31.2557C48.4582 30.7458 48.1991 30.0794 48.1991 29.388C48.1991 28.6966 48.4582 28.0302 48.9252 27.5203C49.1567 27.2777 49.4365 27.0862 49.7465 26.9584C50.0566 26.8305 50.39 26.7691 50.7252 26.7781C51.3171 26.76 51.8969 26.9473 52.3662 27.3083V27.6608C51.9071 27.2929 51.3348 27.0953 50.7465 27.1015C50.4524 27.0942 50.16 27.1487 49.8883 27.2615C49.6166 27.3743 49.3716 27.5428 49.1691 27.7563C48.7613 28.204 48.5353 28.7877 48.5353 29.3933C48.5353 29.9989 48.7613 30.5826 49.1691 31.0303C49.5885 31.438 50.1477 31.6702 50.7325 31.6796C51.3173 31.6889 51.8836 31.4747 52.3159 31.0807V29.0235H52.6473V31.2026C52.4038 31.4661 52.1062 31.6735 51.7748 31.8108C51.4435 31.9481 51.0863 32.012 50.7279 31.998Z" fill="white"></path><path d="M54.3757 31.9132H54.0443V26.8763H56.2738C56.6798 26.8529 57.0801 26.9803 57.3979 27.2342C57.5336 27.3545 57.6408 27.5036 57.7118 27.6704C57.7829 27.8373 57.816 28.0179 57.8088 28.1991C57.8206 28.5314 57.7016 28.855 57.4774 29.1005C57.2304 29.3475 56.9031 29.4979 56.5548 29.5247L58.2118 31.9106H57.822L56.1731 29.5406H54.3757V31.9132ZM54.3757 27.1811V29.233H56.2473C56.5712 29.2528 56.8918 29.1591 57.154 28.9679C57.255 28.8692 57.3352 28.7512 57.39 28.621C57.4448 28.4908 57.473 28.351 57.473 28.2097C57.473 28.0685 57.4448 27.9286 57.39 27.7984C57.3352 27.6682 57.255 27.5503 57.154 27.4515C56.8923 27.2594 56.5713 27.1655 56.2473 27.1864L54.3757 27.1811Z" fill="white"></path><path d="M61.4886 31.9981C61.1541 32.0071 60.8214 31.9457 60.5122 31.8178C60.203 31.6899 59.9242 31.4984 59.6938 31.2558C59.239 30.7446 58.9877 30.0842 58.9877 29.4C58.9877 28.7158 59.239 28.0554 59.6938 27.5443C59.9278 27.3075 60.2064 27.1195 60.5136 26.9912C60.8208 26.8629 61.1504 26.7969 61.4833 26.7969C61.8161 26.7969 62.1457 26.8629 62.4529 26.9912C62.7601 27.1195 63.0387 27.3075 63.2727 27.5443C63.7336 28.0525 63.9889 28.714 63.9889 29.4C63.9889 30.0861 63.7336 30.7476 63.2727 31.2558C63.0435 31.4971 62.7664 31.6878 62.4591 31.8156C62.1519 31.9435 61.8213 32.0056 61.4886 31.9981ZM59.9456 31.0278C60.1454 31.2349 60.3849 31.3996 60.6498 31.5121C60.9146 31.6246 61.1995 31.6826 61.4872 31.6826C61.775 31.6826 62.0598 31.6246 62.3247 31.5121C62.5895 31.3996 62.829 31.2349 63.0288 31.0278C63.4448 30.5863 63.6696 29.9985 63.6545 29.3921C63.6632 29.092 63.6124 28.7932 63.5051 28.5129C63.3977 28.2326 63.2358 27.9764 63.0288 27.759C62.829 27.5519 62.5895 27.3872 62.3247 27.2747C62.0598 27.1622 61.775 27.1042 61.4872 27.1042C61.1995 27.1042 60.9146 27.1622 60.6498 27.2747C60.3849 27.3872 60.1454 27.5519 59.9456 27.759C59.7386 27.9764 59.5768 28.2326 59.4694 28.5129C59.362 28.7932 59.3112 29.092 59.32 29.3921C59.3048 29.9985 59.5297 30.5863 59.9456 31.0278Z" fill="white"></path><path d="M67.2255 31.998C66.9546 32.0096 66.6843 31.9637 66.4325 31.8631C66.1807 31.7626 65.9531 31.6098 65.7647 31.4148C65.3701 30.9573 65.1703 30.3635 65.208 29.7605V26.8735H65.5394V29.7605C65.5084 30.2712 65.6691 30.7751 65.9901 31.1735C66.3167 31.5001 66.7596 31.6835 67.2215 31.6835C67.6833 31.6835 68.1263 31.5001 68.4529 31.1735C68.7723 30.7753 68.9328 30.2728 68.9036 29.7632V26.8735H69.2323V29.7605C69.2688 30.3629 69.0701 30.9559 68.6782 31.4148C68.4917 31.61 68.2655 31.763 68.015 31.8636C67.7644 31.9642 67.4952 32.01 67.2255 31.998Z" fill="white"></path><path d="M70.9979 31.9134H70.6665V26.8764H72.7608C73.1731 26.8522 73.5796 26.9827 73.9008 27.2422C74.0392 27.3652 74.1484 27.5176 74.2204 27.6882C74.2925 27.8588 74.3254 28.0434 74.317 28.2284C74.3249 28.4141 74.2917 28.5993 74.2198 28.7707C74.1478 28.9421 74.0389 29.0955 73.9008 29.2199C73.5806 29.4815 73.1736 29.6131 72.7608 29.5884H70.9979V31.9134ZM70.9979 27.1812V29.2782H72.7317C73.0617 29.3018 73.3894 29.2079 73.6569 29.0131C73.7624 28.914 73.8465 28.7942 73.904 28.6613C73.9615 28.5284 73.9911 28.3851 73.9911 28.2403C73.9911 28.0955 73.9615 27.9523 73.904 27.8193C73.8465 27.6864 73.7624 27.5667 73.6569 27.4676C73.3894 27.2728 73.0617 27.1789 72.7317 27.2025L70.9979 27.1812Z" fill="white"></path><path fill-rule="evenodd" clip-rule="evenodd" d="M14.2857 1.07956C14.6319 0.877126 15.0602 0.877126 15.4064 1.07956L26.3571 7.48183C26.6984 7.68141 26.9083 8.04754 26.9083 8.44344V21.248C26.9083 21.6439 26.6984 22.01 26.3571 22.2096L15.4064 28.6119C15.0602 28.8143 14.6319 28.8143 14.2857 28.6119L3.33506 22.2096C2.9937 22.01 2.78381 21.6439 2.78381 21.248V8.44344C2.78381 8.04754 2.9937 7.68141 3.33506 7.48183L14.2857 1.07956ZM5.00706 9.08277V15.1352L13.7541 10.0304V3.96881L5.00706 9.08277ZM15.9774 3.99182V10.6703C15.9774 11.0665 15.7672 11.4329 15.4254 11.6324L5.00706 17.7125V20.6087L13.7148 25.6996V18.8355C13.7148 18.4394 13.9249 18.0732 14.2665 17.8736L24.6851 11.7893V9.08277L15.9774 3.99182ZM24.6851 14.367L15.938 19.4752V25.7226L24.6851 20.6087V14.367Z" fill="url(#paint0_radial_1304_6164)"></path><defs><radialGradient id="paint0_radial_1304_6164" cx="0" cy="0" r="1" gradientUnits="userSpaceOnUse" gradientTransform="translate(14.8461 28.7637) rotate(-90) scale(29.2278 25.3307)"><stop stop-color="#830A31"></stop><stop offset="0.265625" stop-color="#9E0C3D"></stop><stop offset="0.5625" stop-color="#C50A4D"></stop><stop offset="0.614583" stop-color="#C50A4D"></stop><stop offset="1" stop-color="#E50459"></stop></radialGradient></defs></svg> 